<svg xmlns="http://www.w3.org/2000/svg" viewBox="0 0 720 360"><rect width="720" height="360" rx="8" fill="#f8e1bf"/><path d="M540 0V360" stroke="#aa694c" stroke-dasharray="8 9"/><path d="M20 22H520V336H20Z" fill="none" stroke="#bd653e" stroke-width="2"/><text x="48" y="68" fill="#874626" font-family="Georgia,serif" font-size="22" letter-spacing="4">THE SCRAPBOOK COLLECTION</text><text x="48" y="145" fill="#783d29" font-family="Georgia,serif" font-style="italic" font-size="56">A night to keep.</text><path d="M48 174H488" stroke="#ba7557"/><text x="48" y="217" fill="#704f42" font-family="sans-serif" font-size="19">A space for your real concert ticket</text><text x="48" y="293" fill="#704f42" font-family="sans-serif" font-size="16" letter-spacing="2">ILLUSTRATED PLACEHOLDER</text><g fill="#c17a49"><path d="M630 62l8 24 25 1-20 16 7 25-20-15-21 15 8-25-21-16 26-1z"/><path d="M630 224l8 24 25 1-20 16 7 25-20-15-21 15 8-25-21-16 26-1z"/></g><text x="630" y="183" text-anchor="middle" fill="#874626" font-family="Georgia,serif" font-size="17">KEEPSAKE</text></svg>